<svg xmlns="http://www.w3.org/2000/svg">
	<symbol id="re-deleted" viewBox="0 0 24 24">
		<path fill="currentColor" d="M3,14H21V12H3M5,4V7H10V10H14V7H19V4M10,19H14V16H10V19Z" />
	</symbol>
	<symbol id="re-formatting" viewBox="0 0 24 24">
		<path fill="currentColor" d="M10,11A4,4 0 0,1 6,7A4,4 0 0,1 10,3H18V5H16V21H14V5H12V21H10V11Z" />
	</symbol>
	<symbol id="re-underline" viewBox="0 0 24 24">
		<path fill="currentColor" d="M5,21H19V19H5V21M12,17A6,6 0 0,0 18,11V3H15.5V11A3.5,3.5 0 0,1 12,14.5A3.5,3.5 0 0,1 8.5,11V3H6V11A6,6 0 0,0 12,17Z" />
	</symbol>
	<symbol id="re-bold" viewBox="0 0 24 24">
		<path fill="currentColor" d="M13.5,15.5H10V12.5H13.5A1.5,1.5 0 0,1 15,14A1.5,1.5 0 0,1 13.5,15.5M10,6.5H13A1.5,1.5 0 0,1 14.5,8A1.5,1.5 0 0,1 13,9.5H10M15.6,10.79C16.57,10.11 17.25,9 17.25,8C17.25,5.74 15.5,4 13.25,4H7V18H14.04C16.14,18 17.75,16.3 17.75,14.21C17.75,12.69 16.89,11.39 15.6,10.79Z" />
	</symbol>
	<symbol id="re-unorderedlist" viewBox="0 0 24 24">
		<path fill="currentColor" d="M7,5H21V7H7V5M7,13V11H21V13H7M4,4.5A1.5,1.5 0 0,1 5.5,6A1.5,1.5 0 0,1 4,7.5A1.5,1.5 0 0,1 2.5,6A1.5,1.5 0 0,1 4,4.5M4,10.5A1.5,1.5 0 0,1 5.5,12A1.5,1.5 0 0,1 4,13.5A1.5,1.5 0 0,1 2.5,12A1.5,1.5 0 0,1 4,10.5M7,19V17H21V19H7M4,16.5A1.5,1.5 0 0,1 5.5,18A1.5,1.5 0 0,1 4,19.5A1.5,1.5 0 0,1 2.5,18A1.5,1.5 0 0,1 4,16.5Z" />
	</symbol>
	<symbol id="re-orderedlist" viewBox="0 0 24 24">
		<path fill="currentColor" d="M7,13H21V11H7M7,19H21V17H7M7,7H21V5H7M2,11H3.8L2,13.1V14H5V13H3.2L5,10.9V10H2M3,8H4V4H2V5H3M2,17H4V17.5H3V18.5H4V19H2V20H5V16H2V17Z" />
	</symbol>

	<symbol id="re-indent" viewBox="0 0 24 24">
		<path fill="currentColor" d="M11,13H21V11H11M11,9H21V7H11M3,3V5H21V3M11,17H21V15H11M3,8V16L7,12M3,21H21V19H3V21Z" />
	</symbol>
	<symbol id="re-outdent" viewBox="0 0 24 24">
		<path fill="currentColor" d="M11,13H21V11H11M11,9H21V7H11M3,3V5H21V3M3,21H21V19H3M3,12L7,16V8M11,17H21V15H11V17Z" />
	</symbol>

	<symbol id="re-pagebreak" viewBox="0 0 24 24">
		<path fill="currentColor" d="M18,20H6V18H4V20A2,2 0 0,0 6,22H18A2,2 0 0,0 20,20V18H18V20M14,2H6A2,2 0 0,0 4,4V12H6V4H14V8H18V12H20V8L14,2M11,16H8V14H11V16M16,16H13V14H16V16M3,14H6V16H3V14M21,16H18V14H21V16Z" />
	</symbol>
	<symbol id="re-italic" viewBox="0 0 24 24">
		<path fill="currentColor" d="M10,4V7H12.21L8.79,15H6V18H14V15H11.79L15.21,7H18V4H10Z" />
	</symbol>
	<symbol id="re-image" viewBox="0 0 24 24">
		<path fill="currentColor" d="M8.5,13.5L11,16.5L14.5,12L19,18H5M21,19V5C21,3.89 20.1,3 19,3H5A2,2 0 0,0 3,5V19A2,2 0 0,0 5,21H19A2,2 0 0,0 21,19Z" />
	</symbol>
	<symbol id="re-link" viewBox="0 0 24 24">
		<path fill="currentColor" d="M16,6H13V7.9H16C18.26,7.9 20.1,9.73 20.1,12A4.1,4.1 0 0,1 16,16.1H13V18H16A6,6 0 0,0 22,12C22,8.68 19.31,6 16,6M3.9,12C3.9,9.73 5.74,7.9 8,7.9H11V6H8A6,6 0 0,0 2,12A6,6 0 0,0 8,18H11V16.1H8C5.74,16.1 3.9,14.26 3.9,12M8,13H16V11H8V13Z" />
	</symbol>
	<symbol id="re-html" viewBox="0 0 24 24">
		<path fill="currentColor" d="M14.6,16.6L19.2,12L14.6,7.4L16,6L22,12L16,18L14.6,16.6M9.4,16.6L4.8,12L9.4,7.4L8,6L2,12L8,18L9.4,16.6Z" />
	</symbol>
	<symbol id="re-file" viewBox="0 0 24 24">
		<path fill="currentColor" d="M13,9V3.5L18.5,9M6,2C4.89,2 4,2.89 4,4V20A2,2 0 0,0 6,22H18A2,2 0 0,0 20,20V8L14,2H6Z" />
	</symbol>
	<symbol id="re-paperclip" viewBox="0 0 24 24">
		<path fill="currentColor" d="M16.5,6V17.5A4,4 0 0,1 12.5,21.5A4,4 0 0,1 8.5,17.5V5A2.5,2.5 0 0,1 11,2.5A2.5,2.5 0 0,1 13.5,5V15.5A1,1 0 0,1 12.5,16.5A1,1 0 0,1 11.5,15.5V6H10V15.5A2.5,2.5 0 0,0 12.5,18A2.5,2.5 0 0,0 15,15.5V5A4,4 0 0,0 11,1A4,4 0 0,0 7,5V17.5A5.5,5.5 0 0,0 12.5,23A5.5,5.5 0 0,0 18,17.5V6H16.5Z" />
	</symbol>
	<symbol id="re-quote" viewBox="0 0 24 24">
		<path fill="currentColor" d="M14,17H17L19,13V7H13V13H16M6,17H9L11,13V7H5V13H8L6,17Z" />
	</symbol>
	<symbol id="re-horizontalrule" viewBox="0 0 24 24">
		<path fill="currentColor" d="M16,12A2,2 0 0,1 18,10A2,2 0 0,1 20,12A2,2 0 0,1 18,14A2,2 0 0,1 16,12M10,12A2,2 0 0,1 12,10A2,2 0 0,1 14,12A2,2 0 0,1 12,14A2,2 0 0,1 10,12M4,12A2,2 0 0,1 6,10A2,2 0 0,1 8,12A2,2 0 0,1 6,14A2,2 0 0,1 4,12Z" />
	</symbol>
	<symbol id="re-cut" viewBox="0 0 24 24">
		<path fill="lightgrey" d="M19,3L13,9L15,11L22,4V3M12,12.5A0.5,0.5 0 0,1 11.5,12A0.5,0.5 0 0,1 12,11.5A0.5,0.5 0 0,1 12.5,12A0.5,0.5 0 0,1 12,12.5M6,20A2,2 0 0,1 4,18C4,16.89 4.9,16 6,16A2,2 0 0,1 8,18C8,19.11 7.1,20 6,20M6,8A2,2 0 0,1 4,6C4,4.89 4.9,4 6,4A2,2 0 0,1 8,6C8,7.11 7.1,8 6,8M9.64,7.64C9.87,7.14 10,6.59 10,6A4,4 0 0,0 6,2A4,4 0 0,0 2,6A4,4 0 0,0 6,10C6.59,10 7.14,9.87 7.64,9.64L10,12L7.64,14.36C7.14,14.13 6.59,14 6,14A4,4 0 0,0 2,18A4,4 0 0,0 6,22A4,4 0 0,0 10,18C10,17.41 9.87,16.86 9.64,16.36L12,14L19,21H22V20L9.64,7.64Z" />
	</symbol>

</svg>